<?xml version="1.0" standalone="no"?>
<!DOCTYPE svg PUBLIC "-//W3C//DTD SVG 20010904//EN"
 "http://www.w3.org/TR/2001/REC-SVG-20010904/DTD/svg10.dtd">
<svg version="1.0" xmlns="http://www.w3.org/2000/svg"
 width="212.000000pt" height="150.000000pt" viewBox="0 0 212.000000 150.000000"
 preserveAspectRatio="xMidYMid meet">

<g transform="translate(0.000000,150.000000) scale(0.100000,-0.100000)"
fill="#000000" stroke="none">
<path d="M1405 1489 c-175 -23 -521 -91 -545 -108 l-25 -18 -3 -299 c-3 -291
14 -851 27 -902 11 -40 49 -60 146 -76 50 -9 106 -18 127 -22 57 -10 60 2 46
243 -13 242 -9 266 51 271 85 8 139 -48 171 -179 43 -175 87 -269 126 -269 17
0 17 -5 -2 98 -10 53 -12 88 -6 94 6 6 43 -33 101 -105 118 -148 156 -182 228
-203 49 -14 68 -15 122 -6 78 13 111 36 130 88 14 39 13 41 -42 156 -30 65
-87 166 -126 226 -39 60 -71 118 -71 129 0 23 19 41 117 114 98 74 112 95 130
192 36 201 -28 403 -154 487 -128 84 -329 117 -548 89z m-19 -312 c23 -27 24
-34 24 -171 0 -130 -2 -146 -21 -170 -18 -23 -27 -26 -88 -26 -118 0 -137 30
-147 241 -7 125 -7 126 17 143 19 14 41 17 107 14 77 -3 86 -5 108 -31z"/>
<path d="M325 1200 c-54 -22 -77 -76 -90 -205 -12 -118 -28 -138 -131 -155
-84 -15 -104 -25 -104 -54 0 -34 53 -51 135 -42 48 5 67 3 78 -8 10 -11 15
-59 20 -198 8 -199 16 -256 43 -275 25 -18 164 -17 190 1 18 14 19 26 16 230
-3 205 -2 216 18 236 16 16 33 20 83 20 72 0 107 18 107 55 0 32 -10 37 -91
39 -52 1 -76 7 -96 22 -27 20 -28 26 -39 155 -6 74 -15 142 -19 152 -13 32
-75 46 -120 27z"/>
</g>
</svg>
